<?xml version="1.0" encoding="UTF-8"?>
<svg width="200" height="200" viewBox="0 0 200 200" fill="none" xmlns="http://www.w3.org/2000/svg">
  <rect width="200" height="200" fill="#F3F4F6"/>
  <path d="M100 85C94.4772 85 90 89.4772 90 95C90 100.523 94.4772 105 100 105C105.523 105 110 100.523 110 95C110 89.4772 105.523 85 100 85ZM100 103C95.5817 103 92 99.4183 92 95C92 90.5817 95.5817 87 100 87C104.418 87 108 90.5817 108 95C108 99.4183 104.418 103 100 103Z" fill="#9CA3AF"/>
  <path d="M100 75C83.4315 75 70 88.4315 70 105V115H130V105C130 88.4315 116.569 75 100 75ZM128 113H72V105C72 89.536 85.536 77 101 77C116.464 77 130 89.536 130 105V113Z" fill="#9CA3AF"/>
</svg> 