<?xml version="1.0" encoding="UTF-8"?>
<svg width="512" height="512" viewBox="0 0 512 512" fill="none" xmlns="http://www.w3.org/2000/svg">
  <rect width="512" height="512" rx="128" fill="#ffffff"/>
  <path d="M256 112C179.712 112 118 173.712 118 250C118 326.288 179.712 388 256 388C332.288 388 394 326.288 394 250C394 173.712 332.288 112 256 112ZM256 358C196.28 358 148 309.72 148 250C148 190.28 196.28 142 256 142C315.72 142 364 190.28 364 250C364 309.72 315.72 358 256 358Z" fill="#4C7BF3"/>
  <path d="M256 172C212.92 172 178 206.92 178 250C178 293.08 212.92 328 256 328C299.08 328 334 293.08 334 250C334 206.92 299.08 172 256 172ZM256 298C229.48 298 208 276.52 208 250C208 223.48 229.48 202 256 202C282.52 202 304 223.48 304 250C304 276.52 282.52 298 256 298Z" fill="#4C7BF3"/>
  <path d="M276 124.5C276 135.546 267.046 144.5 256 144.5C244.954 144.5 236 135.546 236 124.5C236 113.454 244.954 104.5 256 104.5C267.046 104.5 276 113.454 276 124.5Z" fill="#4C7BF3"/>
  <path d="M336 184.5C336 195.546 327.046 204.5 316 204.5C304.954 204.5 296 195.546 296 184.5C296 173.454 304.954 164.5 316 164.5C327.046 164.5 336 173.454 336 184.5Z" fill="#4C7BF3"/>
  <path d="M336 314.5C336 325.546 327.046 334.5 316 334.5C304.954 334.5 296 325.546 296 314.5C296 303.454 304.954 294.5 316 294.5C327.046 294.5 336 303.454 336 314.5Z" fill="#4C7BF3"/>
  <path d="M276 374.5C276 385.546 267.046 394.5 256 394.5C244.954 394.5 236 385.546 236 374.5C236 363.454 244.954 354.5 256 354.5C267.046 354.5 276 363.454 276 374.5Z" fill="#4C7BF3"/>
  <path d="M216 314.5C216 325.546 207.046 334.5 196 334.5C184.954 334.5 176 325.546 176 314.5C176 303.454 184.954 294.5 196 294.5C207.046 294.5 216 303.454 216 314.5Z" fill="#4C7BF3"/>
  <path d="M216 184.5C216 195.546 207.046 204.5 196 204.5C184.954 204.5 176 195.546 176 184.5C176 173.454 184.954 164.5 196 164.5C207.046 164.5 216 173.454 216 184.5Z" fill="#4C7BF3"/>
  <!-- Hair strands -->
  <path d="M256 84C256 84 210 154 210 224C210 294 256 364 256 364" stroke="#4C7BF3" stroke-width="12" stroke-linecap="round"/>
  <path d="M284 98C284 98 320 168 320 224C320 280 284 350 284 350" stroke="#4C7BF3" stroke-width="12" stroke-linecap="round"/>
  <path d="M228 98C228 98 192 168 192 224C192 280 228 350 228 350" stroke="#4C7BF3" stroke-width="12" stroke-linecap="round"/>
</svg>